<?xml version="1.0" encoding="UTF-8"?>
<svg id="Layer_2" data-name="Layer 2" xmlns="http://www.w3.org/2000/svg" viewBox="0 0 612 792">
  <defs>
    <style>
      .cls-1 {
        letter-spacing: -.07em;
      }

      .cls-2, .cls-3 {
        fill: #fff;
      }

      .cls-4 {
        letter-spacing: -.16em;
      }

      .cls-3 {
        font-family: LEMONMILK-RegularItalic, 'LEMON MILK';
        font-size: 30px;
        font-style: italic;
      }

      .cls-5 {
        fill: #ec2027;
      }

      .cls-6 {
        isolation: isolate;
      }

      .cls-7 {
        letter-spacing: -.02em;
      }

      .cls-8 {
        fill: none;
      }

      .cls-9 {
        letter-spacing: -.04em;
      }
    </style>
  </defs>
  <g id="Layer_1-2" data-name="Layer 1">
    <rect class="cls-8" width="612" height="792"/>
    <g id="Group_71" data-name="Group 71">
      <rect id="Rectangle_6" data-name="Rectangle 6" class="cls-5" x="19.02" y="335.24" width="484.1" height="116.78"/>
      <g id="VintageVault" class="cls-6">
        <g class="cls-6">
          <path class="cls-2" d="m75.56,368.35h17.42l11.94,44.29h.18l12.02-44.29h16.8l-20.51,63.21h-16.8l-21.04-63.21Z"/>
          <path class="cls-2" d="m137.35,368.35h14.15v12.55h-14.15v-12.55Zm0,17.95h14.15v45.27h-14.15v-45.27Z"/>
          <path class="cls-2" d="m181.91,396.38c-5.39,0-8.49,2.74-8.49,9.02v26.17h-14.15v-45.27h14.15v6.54h.18c2.39-4.16,6.81-7.96,14.85-7.96,8.75,0,14.68,5.75,14.68,16.09v30.59h-14.15v-26.08c0-6.81-2.39-9.11-7.07-9.11Z"/>
          <path class="cls-2" d="m213.82,416.89v-19.98h-6.28v-10.61h6.28v-12.64h14.15v12.64h7.87v10.61h-7.87v19.63c0,4.86,1.86,5.3,4.6,5.3,1.33,0,2.12-.09,3.8-.35v9.99c-3.01.71-5.57.97-8.4.97-9.9,0-14.15-4.51-14.15-15.56Z"/>
          <path class="cls-2" d="m240.6,419.72c0-9.37,7.69-13,17.33-15.03,4.95-1.06,11.94-1.77,11.94-6.28,0-2.48-1.94-4.07-6.01-4.07-5.22,0-7.6,2.12-8.05,6.54h-13.44c.44-8.66,6.81-16.09,22.1-16.09,12.29,0,19.1,4.95,19.1,18.83v17.5c0,2.39.27,3.45,1.68,3.45.35,0,.62,0,1.15-.09v6.72c-2.83.53-5.75.8-7.78.8-5.66,0-7.78-2.12-8.49-5.92h-.18c-3.18,3.98-8.4,6.9-14.94,6.9-8.84,0-14.41-5.22-14.41-13.26Zm20.33,3.54c5.66,0,8.93-4.77,8.93-9.99v-3.8c-1.86.71-3.98,1.24-7.69,2.12-5.22,1.24-7.07,3.45-7.07,6.63,0,3.45,2.21,5.04,5.83,5.04Z"/>
          <path class="cls-2" d="m290.82,433.07h14.32c.88,2.48,2.92,4.51,7.87,4.51,6.37,0,8.49-3.36,8.49-11.4v-2.65h-.18c-1.77,2.39-5.75,5.92-12.38,5.92-11.58,0-19.01-9.19-19.01-22.28s7.43-22.28,19.01-22.28c6.63,0,10.61,3.54,12.38,5.92h.18v-4.51h14.15v39.87c0,16.18-8.75,21.57-22.63,21.57s-20.6-7.43-22.19-14.68Zm22.01-14.23c5.75,0,8.4-4.33,8.4-11.67s-2.65-11.67-8.4-11.67-8.4,4.33-8.4,11.67,2.65,11.67,8.4,11.67Z"/>
          <path class="cls-2" d="m341.38,408.93c0-13.26,8.31-24.14,23.52-24.14s23.16,9.11,23.16,25.82v2.12h-32.53c0,6.28,4.42,9.72,9.72,9.72s7.16-2.3,8.04-4.6h14.41c-2.56,9.19-10.08,15.21-22.81,15.21-14.68,0-23.52-9.99-23.52-24.14Zm32.45-4.95c0-5.83-3.45-8.93-8.93-8.93s-8.93,3.09-9.28,8.93h18.21Z"/>
          <path class="cls-2" d="m384.7,368.35h17.42l11.94,44.29h.18l12.02-44.29h16.8l-20.51,63.21h-16.8l-21.04-63.21Z"/>
          <path class="cls-2" d="m439.6,419.72c0-9.37,7.69-13,17.33-15.03,4.95-1.06,11.94-1.77,11.94-6.28,0-2.48-1.95-4.07-6.01-4.07-5.22,0-7.6,2.12-8.04,6.54h-13.44c.44-8.66,6.81-16.09,22.1-16.09,12.29,0,19.1,4.95,19.1,18.83v17.5c0,2.39.27,3.45,1.68,3.45.35,0,.62,0,1.15-.09v6.72c-2.83.53-5.75.8-7.78.8-5.66,0-7.78-2.12-8.49-5.92h-.18c-3.18,3.98-8.4,6.9-14.94,6.9-8.84,0-14.41-5.22-14.41-13.26Zm20.33,3.54c5.66,0,8.93-4.77,8.93-9.99v-3.8c-1.86.71-3.98,1.24-7.69,2.12-5.22,1.24-7.07,3.45-7.07,6.63,0,3.45,2.21,5.04,5.83,5.04Z"/>
          <path class="cls-2" d="m491.05,416.89v-30.59h14.15v26.08c0,6.81,2.39,9.11,7.07,9.11,5.39,0,8.49-2.74,8.49-9.02v-26.17h14.15v45.27h-14.15v-6.54h-.18c-2.39,4.16-6.81,7.96-14.85,7.96-8.75,0-14.68-5.75-14.68-16.09Z"/>
          <path class="cls-2" d="m542.68,368.35h14.15v63.21h-14.15v-63.21Z"/>
          <path class="cls-2" d="m568.22,416.89v-19.98h-6.28v-10.61h6.28v-12.64h14.15v12.64h7.87v10.61h-7.87v19.63c0,4.86,1.86,5.3,4.6,5.3,1.33,0,2.12-.09,3.8-.35v9.99c-3.01.71-5.57.97-8.4.97-9.9,0-14.15-4.51-14.15-15.56Z"/>
        </g>
      </g>
    </g>
    <text class="cls-3" transform="translate(32.37 484.64)"><tspan x="0" y="0">Yester</tspan><tspan class="cls-1" x="108.52" y="0">d</tspan><tspan class="cls-4" x="128.19" y="0">a</tspan><tspan x="145.5" y="0">y’s Tre</tspan><tspan class="cls-7" x="252.73" y="0">a</tspan><tspan x="274.22" y="0">sures, Res</tspan><tspan class="cls-9" x="440.79" y="0">t</tspan><tspan x="456.72" y="0">ored.</tspan></text>
  </g>
</svg>